<?xml version="1.0" encoding="UTF-8" standalone="no"?>
<svg
   xmlns:dc="http://purl.org/dc/elements/1.1/"
   xmlns:cc="http://creativecommons.org/ns#"
   xmlns:rdf="http://www.w3.org/1999/02/22-rdf-syntax-ns#"
   xmlns:svg="http://www.w3.org/2000/svg"
   xmlns="http://www.w3.org/2000/svg"
   viewBox="0 0 483.76001 108.26667"
   height="108.26667"
   width="483.76001"
   xml:space="preserve"
   id="svg2"
   version="1.1"><metadata
     id="metadata8"><rdf:RDF><cc:Work
         rdf:about=""><dc:format>image/svg+xml</dc:format><dc:type
           rdf:resource="http://purl.org/dc/dcmitype/StillImage" /></cc:Work></rdf:RDF></metadata><defs
     id="defs6" /><g
     transform="matrix(1.3333333,0,0,-1.3333333,0,108.26667)"
     id="g10"><g
       transform="scale(0.1)"
       id="g12"><path
         id="path14"
         style="fill:#e83534;fill-opacity:1;fill-rule:nonzero;stroke:none"
         d="m 3322.5,452.863 h 305.672 V 758.531 H 3322.5 Z" /><path
         id="path16"
         style="fill:#ffffff;fill-opacity:1;fill-rule:nonzero;stroke:none"
         d="m 3578.43,575.207 0.02,61.813 h -0.02 v 0.168 h -72.19 l 0.13,72.058 h -61.94 v -0.043 h -0.04 l -0.04,-72.015 h -72.1 l -0.03,-61.883 h 0.05 v -0.184 l 72.14,0.086 -0.11,-72.09 h 61.9 v 0.024 h 0.09 l 0.01,72.047 72.13,0.019" /><path
         id="path18"
         style="fill:#fabd24;fill-opacity:1;fill-rule:nonzero;stroke:none"
         d="m 2566.86,452.863 h 305.68 v 305.668 h -305.68 z" /><path
         id="path20"
         style="fill:#f27a33;fill-opacity:1;fill-rule:nonzero;stroke:none"
         d="m 2944.69,452.863 h 305.66 v 305.668 h -305.66 z" /><path
         id="path22"
         style="fill:#040606;fill-opacity:1;fill-rule:nonzero;stroke:none"
         d="M 8.33203,452.109 V 704.043 H 51.6406 V 452.109 Z M 5.33594,761.801 V 811.59 H 54.6367 V 761.801 H 5.33594" /><path
         id="path24"
         style="fill:#040606;fill-opacity:1;fill-rule:nonzero;stroke:none"
         d="m 438.305,452.109 v 160.329 c 0,35.347 -11.457,59.742 -51.285,59.742 -15.942,0 -28.383,-6.473 -38.344,-16.926 C 331.75,637.824 327.27,612.438 327.27,586.043 V 452.109 h -42.325 v 160.329 c 0,35.347 -10.449,59.742 -50.789,59.742 -17.922,0 -32.351,-8.961 -42.808,-22.407 -12.446,-15.929 -16.926,-42.816 -16.926,-63.73 V 452.109 h -42.324 v 251.934 h 36.843 l 3.985,-35.848 c 13.441,28.383 42.324,42.321 70.691,42.321 37.348,0 64.231,-16.926 75.192,-47.797 13.441,31.371 45.804,47.797 77.671,47.797 57.25,0 84.137,-36.84 84.137,-92.606 V 452.109 h -42.312" /><path
         id="path26"
         style="fill:#040606;fill-opacity:1;fill-rule:nonzero;stroke:none"
         d="m 708.75,573.602 -67.711,-3.989 c -25.387,-1.492 -55.269,-13.445 -55.269,-45.308 0,-22.407 13.941,-43.317 49.789,-43.317 19.421,0 38.343,6.473 51.785,20.414 14.941,15.438 21.406,36.344 21.406,57.258 z m 38.844,-124.973 c -22.406,0 -36.348,16.926 -36.348,38.336 h -0.996 c -14.441,-25.395 -45.809,-41.324 -81.156,-41.324 -57.766,0 -86.633,38.836 -86.633,77.672 0,32.359 20.906,74.683 89.613,78.664 l 76.676,4.48 v 18.422 c 0,12.453 -1.496,27.887 -12.941,38.34 -8.465,7.969 -20.907,12.949 -41.329,12.949 -22.902,0 -37.343,-6.48 -45.808,-14.941 -7.961,-7.965 -12.442,-17.922 -12.442,-30.375 h -41.328 c 0.5,22.906 8.961,39.336 21.907,52.781 16.925,17.922 46.804,26.883 77.671,26.883 48.79,0 76.672,-20.907 88.633,-48.289 4.965,-11.454 7.461,-24.403 7.461,-38.836 V 501.402 c 0,-13.445 5.481,-16.925 13.946,-16.925 4.48,0 10.945,1.492 10.945,1.492 v -31.367 c -8.961,-4.481 -17.426,-5.973 -27.871,-5.973" /><path
         id="path28"
         style="fill:#040606;fill-opacity:1;fill-rule:nonzero;stroke:none"
         d="m 933.109,676.168 c -34.363,0 -57.265,-23.402 -57.265,-55.27 0,-31.867 21.402,-56.261 57.265,-56.261 34.348,0 57.25,24.394 57.25,56.261 0,31.868 -21.406,55.27 -57.25,55.27 z m 6.965,-221.566 h -45.808 c -16.926,-5.481 -31.868,-20.414 -31.868,-39.836 0,-11.45 3.985,-19.914 10.461,-26.383 16.426,-16.434 45.309,-17.426 67.215,-17.426 21.403,0 52.77,1.988 68.706,17.922 6.48,6.473 10.46,14.934 10.46,25.887 0,42.824 -47.302,39.836 -79.166,39.836 z m 99.076,-90.618 c -24.39,-23.902 -66.212,-29.375 -101.56,-29.375 -33.363,0 -71.207,4.977 -95.598,29.375 -10.457,10.454 -17.922,24.895 -17.922,44.809 0,26.387 15.926,45.809 35.848,55.77 -16.938,6.468 -29.383,22.898 -29.383,42.316 0,22.406 14.442,39.828 33.363,48.793 -18.421,16.43 -28.882,41.324 -28.882,65.226 0,27.383 9.461,46.305 23.902,61.243 17.426,17.922 41.324,28.375 74.676,28.375 23.902,0 42.324,-5.473 57.765,-14.934 8.461,22.402 27.881,35.356 51.771,35.356 4,0 8.48,-0.5 12.46,-1 v -34.356 c -2.5,0.5 -5.98,0.5 -9.46,0.5 -16.44,0 -28.38,-8.965 -30.87,-22.906 10.45,-13.442 16.43,-29.871 16.43,-52.278 0,-23.902 -8.96,-44.808 -22.91,-60.25 -16.421,-17.921 -41.823,-29.871 -75.186,-29.871 -16.922,0 -26.383,1.496 -42.313,6.969 -9.461,-2.98 -20.418,-10.453 -21.418,-22.402 -1.484,-21.906 21.918,-24.399 37.844,-24.895 16.438,-0.5 49.789,0 49.789,0 29.883,0 63.234,-5.972 83.154,-26.386 11.94,-11.954 19.92,-28.383 19.92,-49.297 0,-21.903 -9.46,-38.836 -21.42,-50.782" /><path
         id="path30"
         style="fill:#040606;fill-opacity:1;fill-rule:nonzero;stroke:none"
         d="m 1256.76,654.266 c -10.46,13.941 -27.38,22.902 -49.79,22.902 -45.8,0 -68.21,-37.336 -69.21,-74.184 h 134.44 c 0,18.918 -5.48,37.84 -15.44,51.282 z m 58.25,-87.625 h -178.25 c 0,-22.907 8.97,-47.801 24.41,-63.235 11.45,-11.449 26.88,-17.929 46.3,-17.929 19.92,0 36.35,5.48 46.81,16.433 6.96,6.973 11.44,13.942 14.93,27.383 h 41.32 c -3.48,-24.895 -18.42,-48.297 -38.83,-62.23 -17.92,-11.954 -40.33,-18.922 -64.23,-18.922 -35.35,0 -64.23,14.933 -83.65,37.836 -20.91,24.402 -31.36,57.757 -31.36,93.605 0,30.375 5.47,57.258 19.42,80.66 17.92,30.367 51.28,52.774 95.09,52.774 32.37,0 58.25,-12.446 76.68,-32.36 20.42,-22.402 32.36,-54.765 31.86,-88.625 l -0.5,-25.39" /><path
         id="path32"
         style="fill:#040606;fill-opacity:1;fill-rule:nonzero;stroke:none"
         d="m 1483.17,673.328 c -18.42,0 -30.86,-7.465 -40.82,-16.426 -20.91,-18.422 -27.89,-48.797 -27.89,-80.164 0,-31.367 6.98,-61.738 27.89,-80.164 9.96,-8.961 22.4,-16.429 40.82,-16.429 56.27,0 71.2,50.289 71.2,96.593 0,46.309 -14.93,96.59 -71.2,96.59 z m 76.18,-203.637 c -16.43,-15.433 -39.83,-25.394 -69.21,-25.394 -27.39,0 -59.74,12.945 -73.18,35.848 V 343.223 h -42.33 v 359.488 h 37.35 l 2.98,-32.867 c 14.44,25.394 46.81,39.336 75.18,39.336 30.88,0 54.77,-10.457 71.2,-27.383 23.91,-24.402 36.35,-62.738 36.35,-104.559 0,-43.316 -12.94,-83.152 -38.34,-107.547" /><path
         id="path34"
         style="fill:#040606;fill-opacity:1;fill-rule:nonzero;stroke:none"
         d="m 1807.19,656.355 c -10.46,10.461 -25.4,17.926 -45.32,17.926 -19.91,0 -34.85,-7.465 -45.31,-17.926 -17.92,-18.421 -23.39,-48.789 -23.39,-78.164 0,-29.375 5.47,-59.75 23.39,-78.171 10.46,-10.454 25.4,-17.922 45.31,-17.922 19.92,0 34.86,7.468 45.32,17.922 17.92,18.421 23.39,48.796 23.39,78.171 0,29.375 -5.47,59.743 -23.39,78.164 z m 30.87,-181.23 c -18.43,-17.922 -44.33,-29.375 -76.19,-29.375 -31.87,0 -57.75,11.453 -76.18,29.375 -27.38,26.887 -35.84,63.23 -35.84,103.066 0,39.829 8.46,76.176 35.84,103.059 18.43,17.93 44.31,29.375 76.18,29.375 31.86,0 57.76,-11.445 76.19,-29.375 27.38,-26.883 35.84,-63.23 35.84,-103.059 0,-39.836 -8.46,-76.179 -35.84,-103.066" /><path
         id="path36"
         style="fill:#040606;fill-opacity:1;fill-rule:nonzero;stroke:none"
         d="m 1934.17,452.539 v 251.934 h 43.31 V 452.539 Z m -2.99,309.691 v 49.79 h 49.3 v -49.79 h -49.3" /><path
         id="path38"
         style="fill:#040606;fill-opacity:1;fill-rule:nonzero;stroke:none"
         d="m 2218.84,453.164 v 159.828 c 0,37.836 -15.42,60.242 -55.25,60.242 -24.4,0 -43.82,-15.933 -54.77,-38.836 -8.48,-18.421 -8.96,-44.808 -8.96,-64.222 V 453.164 h -42.33 v 251.934 h 36.85 l 3.48,-37.836 c 12.94,28.875 47.79,44.308 76.17,44.308 57.27,0 87.14,-34.347 87.14,-92.605 V 453.164 h -42.33" /><path
         id="path40"
         style="fill:#040606;fill-opacity:1;fill-rule:nonzero;stroke:none"
         d="m 2420.18,449.684 c -54.27,0 -69.21,34.347 -69.21,68.211 v 150.859 h -48.79 v 36.344 h 48.79 v 64.23 l 42.32,9.961 v -74.191 h 74.69 v -36.344 h -74.69 V 522.867 c 0,-24.394 10.46,-34.351 33.87,-34.351 17.92,0 43.31,4.476 43.31,4.476 v -36.344 c -11.45,-2.98 -26.89,-6.964 -50.29,-6.964" /><path
         id="path42"
         style="fill:#040606;fill-opacity:1;fill-rule:nonzero;stroke:none"
         d="m 1938.23,95.2109 c -0.99,0.9883 -2.22,1.918 -3.78,2.8282 -1.35,0.8047 -2.84,1.4726 -4.33,1.9414 -2.73,0.8635 -4.65,0.8085 -6.31,-0.1485 -2.62,-1.539 -5.23,-3.2343 -7.76,-4.8789 -5.87,-3.8008 -11.93,-7.7265 -18.79,-10.1172 -2.21,-0.7695 -4.5,-1.3867 -6.7,-1.9804 l -0.65,-0.168 c -2.95,-0.8047 -7.89,1.3047 -10.18,4.2109 -2.76,3.5 -4.08,7.7579 -3.92,12.6446 0.1,2.984 0.39,5.988 0.67,8.895 0.28,2.867 0.57,5.832 0.67,8.734 0.1,3.433 -0.5,6.984 -1.05,9.699 -0.94,4.656 -4.37,7.371 -9.66,7.633 h -0.02 c -1.55,0 -2.56,-0.57 -2.92,-1.524 -1.16,-3.035 -2.24,-6.097 -3.33,-9.164 -1.42,-3.996 -2.88,-8.121 -4.48,-12.128 -3.01,-7.454 -7.57,-13.7778 -13.59,-18.8052 -6.97,-5.8515 -14.42,-10.1758 -22.16,-12.8594 -3.65,-1.2421 -7.5,-0.3125 -10.58,2.6094 -2.93,2.7813 -4.86,5.668 -5.89,8.8281 -0.82,2.543 -1.42,5.5235 0.39,8.3594 4.69,7.3827 8.95,15.9297 13.41,26.9067 1.83,4.472 3.03,9.336 4.19,14.039 1.5,6.089 -1.55,12.355 -7.52,15.886 -0.5,0.293 -1.02,0.528 -1.55,0.766 l -0.61,0.277 c -2.34,1.102 -6.38,0.399 -7.72,-1.304 -0.38,-0.469 -0.77,-0.942 -1.17,-1.414 -1.23,-1.477 -2.39,-2.875 -3.16,-4.434 -6.82,-13.699 -13.03,-27.258 -14.05,-42.453 -0.21,-2.957 -1.98,-5.27 -3.88,-7.332 -3.74,-4.0666 -7.95,-7.1838 -12.52,-9.2463 -0.45,-0.207 -0.92,-0.3828 -1.39,-0.5625 -0.32,-0.1211 -0.66,-0.25 -0.99,-0.3906 -3.31,-1.3945 -8.15,0.6367 -10.08,4.1562 -3.6,6.5582 -4.49,13.7972 -4.89,20.0152 -0.38,5.911 0.79,10.911 3.58,15.29 3.34,5.246 6.73,10.906 10.36,17.296 6.11,10.766 10.64,23.063 14.7,39.875 1.23,5.11 0.83,10.582 -1.25,16.719 -0.87,2.57 -2.07,4.262 -3.8,5.328 -0.62,0.379 -1.23,0.797 -1.83,1.219 -0.77,0.531 -1.53,1.063 -2.34,1.508 -3.78,2.074 -9.42,0.941 -12.1,-2.317 -8.15,-9.953 -13.54,-21.675 -16.45,-35.843 -1.95,-9.563 -3.34,-19.387 -4.68,-28.887 -0.53,-3.676 -1.04,-7.352 -1.59,-11.023 -0.83,-5.516 -3,-10.149 -6.65,-14.157 -11.34,-12.508 -24.29,-23.2107 -37.69,-33.9802 -3.52,-2.832 -7.38,-4.918 -11.47,-6.1875 -2.49,-0.7734 -6.46,0.5469 -7.74,3.8594 l -0.46,1.1406 c -0.85,2.1094 -1.73,4.2891 -1.64,6.5352 0.43,10.0235 3.14,19.1015 8.05,26.9845 0.55,0.863 1.19,1.652 1.83,2.445 0.44,0.531 0.88,1.067 1.27,1.621 1.8,2.543 6.53,2.727 8.42,0.289 1.02,-1.328 2,-2.691 2.97,-4.058 0.99,-1.364 1.97,-2.723 2.98,-4.047 0.82,-1.07 4.04,-1.766 5.46,-1.192 1.94,0.809 3.27,2.352 4.07,4.715 0.23,0.672 0.33,1.367 0.27,1.922 -0.47,4.567 -1.98,9.094 -4.58,13.848 -0.74,1.347 -1.72,2.637 -2.81,3.722 -4.21,4.231 -9.15,6.883 -14.7,7.891 -3.11,0.555 -6.01,-0.144 -8.54,-2.051 -5.07,-3.832 -8.78,-8.16 -11.04,-12.851 -6.25,-13.098 -10.15,-25.258 -8.78,-42.0002 l 0.03,-0.3399 -0.59,-0.0351 0.57,-0.0586 c -0.02,-0.3633 0,-3.1641 0.34,-5.8594 1.05,-8.4258 7.66,-17.4961 19.69,-17.4961 1.43,0 2.92,0.1289 4.42,0.3867 2.23,0.3828 4.56,1.0938 6.94,2.1055 8.5,3.6094 16.16,8.6406 22.77,14.9414 6.8,6.4726 13.6,12.957 21.57,17.8555 1.7,1.0432 4.28,0.4142 6,-1.3868 2.68,-2.7539 3.74,-6.1757 4.78,-9.4882 0.74,-2.3985 1.43,-4.6563 2.7,-6.6719 4.93,-7.7656 11.73,-10.711 20.11,-8.7461 2.66,0.6094 4.92,1.3672 6.87,2.3164 1.66,0.7969 3.25,1.6992 4.85,2.5976 2.05,1.1602 4.17,2.3555 6.38,3.3125 1.35,0.5899 3.3,0.3204 5.78,-0.7929 2.49,-1.1016 4.02,-3.0977 5.51,-5.0313 0.63,-0.8125 1.25,-1.625 1.95,-2.3554 5.53,-5.7891 12.53,-8.6055 21.37,-8.6055 l 0.49,0.0039 c 4.77,0.0625 9.6,1.0586 14.33,2.9687 6.94,2.8008 13.78,6.7852 21.5,12.5352 2.25,1.6875 6.24,1.5078 8.46,-0.332 l 2.23,-1.8477 c 3.08,-2.5547 6.25,-5.1914 9.58,-7.4414 1.54,-1.0391 3.73,-1.7617 6.52,-2.125 8.04,-1.1016 16.1,0.0938 24.05,3.4844 1.96,0.8359 3.86,1.7812 5.78,2.7305 4.12,2.0429 8.36,4.1523 13.06,5.125 0.43,0.082 0.88,0.1289 1.35,0.1289 1.55,0 3.19,-0.4571 4.39,-1.2149 1.99,-1.2656 3.97,-3.0273 5.89,-5.2344 1.95,-2.2382 3.84,-4.5195 5.74,-6.8046 2.35,-2.8438 4.79,-5.7852 7.29,-8.5743 0.67,-0.75 2.25,-1.3828 3.68,-1.4843 2.31,-0.1446 4.65,0.0664 7.06,0.6093 1.51,0.3399 2.63,1.1289 3.15,2.2188 0.48,1.043 0.42,2.3086 -0.21,3.5547 -5.52,10.9023 -13.32,21.3476 -23.9,31.9179" /><path
         id="path44"
         style="fill:#040606;fill-opacity:1;fill-rule:nonzero;stroke:none"
         d="m 1245.17,126.578 c -5.57,1.817 -10.99,1.34 -16.07,-1.426 -9.02,-4.894 -14.79,-12.492 -17.14,-22.589 -0.69,-2.9107 -1.19,-5.9302 -1.68,-8.8521 -0.33,-2.0117 -0.66,-4.0156 -1.05,-6.0078 -0.8,-4.0742 -6.09,-8.1015 -10.68,-8.1328 l -1.86,-0.0039 c -7.01,0 -15.29,0.2695 -23.57,2.2656 -5.72,1.3789 -10.17,4.5118 -12.87,9.0508 -0.9,1.543 -1.23,4.3047 -0.29,5.9727 1.55,2.7383 3.39,5.3325 5.19,7.8355 0.63,0.899 1.28,1.797 1.9,2.7 5.34,7.675 8.28,16.172 8.74,25.257 0.23,4.723 -1.63,8.704 -5.73,12.168 -2.15,1.829 -4.84,3.25 -8.45,4.477 -0.56,0.184 -1.26,0.281 -2.04,0.281 -2.36,0 -4.86,-0.879 -5.93,-2.086 -6.73,-7.531 -10.72,-15.308 -12.23,-23.781 -0.61,-3.418 -1.08,-6.93 -1.54,-10.324 -0.44,-3.223 -0.87,-6.445 -1.43,-9.649 -0.38,-2.281 -2.03,-4.2301 -2.73,-4.9606 -8.47,-8.8945 -17.91,-14.1523 -28.89,-16.0781 -2.27,-0.4219 -4.2,0.2266 -5.71,1.8633 -0.32,0.3398 -0.68,0.6758 -1.03,1.0117 -0.98,0.9024 -1.97,1.832 -2.49,3.1055 -4.09,9.9531 -5.02,19.1092 -2.85,28.0002 1.74,7.195 3.97,14.191 5.7,19.492 1.26,3.777 3.79,7.129 7.97,10.531 1.97,1.606 4.29,3.055 6.68,4.188 6.46,3.043 10.19,8.394 13.26,13.722 4.36,7.571 7.11,15.887 9.34,23.09 0.19,0.59 0.13,1.367 0.07,1.977 -0.75,7.242 -3.82,12.359 -9.41,15.637 -2.83,1.664 -8.21,1.191 -10.27,-0.86 -0.42,-0.43 -0.87,-0.851 -1.32,-1.277 -1.39,-1.336 -2.7,-2.598 -3.74,-4.043 -1.23,-1.742 -2.35,-3.563 -3.47,-5.383 -1.51,-2.461 -3.07,-5 -4.9,-7.32 -8.27,-10.508 -12.73,-22.871 -16,-33.586 -0.61,-2.008 -1.25,-4.012 -1.89,-6.016 -2.61,-8.25 -5.32,-16.777 -6.38,-25.519 -0.57,-4.696 -2.96,-8.621 -6.91,-11.348 -13.19,-9.106 -24.28,-16.6993 -35.58,-24.1602 -6.78,-4.4688 -14.19,-9.0274 -22.5,-12.0938 -2.97,-1.1054 -6.36,-0.8164 -8.48,0.8008 -2.35,1.7656 -2.97,4.875 -3.25,7.6836 -0.1,0.9961 0,1.9649 0.1,2.7969 0.61,5.1211 2.44,10.0351 5.45,14.6133 6.31,9.5744 14.39,17.9924 24.72,25.7384 7.05,5.285 14.04,7.855 21.39,7.855 l 0.44,-0.004 c 0,0 0.02,0 0.03,0 1.78,0 3.28,0.188 4.59,0.551 1.19,0.321 1.89,1.231 2.69,2.688 0.82,1.519 0.51,2.179 -0.42,2.922 -0.7,0.558 -1.38,1.183 -2.04,1.808 -1.18,1.098 -2.29,2.137 -3.55,2.793 -4.07,2.141 -8.27,3.223 -12.48,3.223 -4.45,0 -8.82,-1.207 -13,-3.582 -14.09,-8.012 -25.84,-18.656 -34.951,-31.641 -9.414,-13.4061 -11.074,-27.5389 -4.922,-42.0038 0.883,-2.1054 2.41,-3.8008 4.414,-4.914 1.41,-0.7852 2.906,-1.4375 4.449,-2.0977 6.75,-2.8633 12.84,-3.1406 18.73,-0.8594 0.96,0.375 1.95,0.711 2.93,1.0508 2.24,0.7617 4.35,1.4805 6.23,2.5859 7.16,4.1875 16.44,9.9141 24.74,17.0899 5.47,4.7187 9.92,9.0547 14.04,13.6328 0.28,0.3125 0.54,0.6328 0.82,0.957 0.86,1.0235 1.75,2.0782 2.91,2.8475 0.41,0.274 0.8,0.621 1.2,0.973 0.89,0.797 1.91,1.707 3.28,1.996 h 0.03 c 1.82,0 2.71,-2.715 2.72,-2.746 0.67,-2.1447 1.28,-4.3087 1.89,-6.4728 1.18,-4.2227 2.41,-8.5859 4.08,-12.6406 2.5,-6.0118 7.43,-9.9766 14.25,-11.4532 8.04,-1.7461 14.98,-1.0664 21.39,2.0547 1.8,0.8711 3.58,1.7539 5.37,2.6367 3.51,1.7383 7.01,3.4727 10.56,5.125 5.37,2.4844 9.6,2.4766 13.27,0.1016 7.48,-4.8281 16.11,-7.7617 27.99,-9.5156 4.07,-0.6016 8.17,-1.0781 12.05,-1.5352 l 4.87,-0.5742 4.06,-0.2969 c 3.16,-0.2382 6.11,-0.4609 9.07,-0.6015 1.67,-0.0821 3.37,-0.0508 5.03,-0.0157 0.83,0.0157 1.65,0.0313 2.49,0.0352 3.59,0.0156 7.29,2.9219 7.91,6.2109 l 0.12,0.6016 c 0.59,3.0078 1.19,6.1094 1.24,9.1289 0.24,11.5977 4.55,21.4731 13.17,30.1911 l 3.74,3.774 c 1.72,1.715 3.42,3.437 5.12,5.176 0.53,0.543 0.71,1.55 0.46,2.562 -0.2,0.82 -0.66,1.461 -1.16,1.621" /><path
         id="path46"
         style="fill:#040606;fill-opacity:1;fill-rule:nonzero;stroke:none"
         d="m 387.813,99.1211 c -1.321,-2.1016 -2.918,-3.4375 -3.782,-4.1563 l -0.414,-0.3515 c -5.429,-5.0078 -11.629,-7.9922 -18.426,-8.8828 -0.207,-0.0235 -0.406,-0.0313 -0.613,-0.0313 -0.398,0 -0.793,0.043 -1.191,0.086 -0.289,0.0351 -0.574,0.0703 -0.864,0.0742 -2.121,0.0234 -3.898,0.8906 -5.007,2.4414 -1.172,1.6484 -1.43,3.8359 -0.696,6.0039 2.41,7.2113 5.633,15.3513 11.282,21.0153 3.531,3.539 8.402,7.879 14.898,10.059 0.676,0.172 1.242,0.246 1.785,0.246 3.168,0 4.832,-2.367 5.727,-3.637 l 0.199,-0.281 c 0.781,-1.035 1.301,-4.664 1.301,-5.367 0.086,-8.027 -0.071,-10.637 -4.199,-17.2189 z m 27.382,32.2229 c -0.703,3.875 -3.074,7.015 -6.668,8.836 -2.371,1.195 -5.007,2.07 -7.558,2.914 -1.371,0.453 -2.75,0.91 -4.098,1.418 -3.156,1.183 -6.199,1.402 -9.156,0.664 -11.918,-3 -25.024,-4.453 -41.235,-4.574 h -0.019 c -2.094,0 -4.078,-0.325 -6.172,-0.661 -2.34,-0.382 -4.762,-0.773 -7.301,-0.773 -1.218,0 -2.351,0.09 -3.453,0.277 -1.726,0.289 -3.234,1.977 -3.996,3.328 -0.844,1.5 -1.055,2.957 -0.598,4.106 l 0.914,2.328 c 3.415,8.773 6.754,16.734 10.188,17.883 0.328,0.14 0.746,0.234 1.141,0.234 2.898,0 3.296,-4.222 3.425,-5.609 l 0.086,-0.93 c 0.11,-1.34 0.231,-2.683 0.41,-4.023 0.215,-1.621 0.473,-3.242 0.801,-4.852 0.27,-1.273 1.074,-2.078 2.395,-2.383 2.109,-0.511 4.621,0.227 5.129,1.453 0.367,0.864 0.754,1.711 1.148,2.563 1.024,2.223 1.985,4.328 2.5,6.535 1.668,7.082 2.176,14.563 1.5,22.231 -0.586,6.722 -3.234,12.511 -7.859,17.211 -1.707,1.73 -3.61,2.933 -5.805,3.675 -0.605,0.207 -1.148,0.309 -1.676,0.309 -0.722,0 -1.429,-0.195 -2.211,-0.602 -2.461,-1.281 -4.019,-2.64 -5.05,-4.414 -10.309,-17.543 -16.965,-31.511 -21.598,-45.312 -1.809,-5.391 -3.832,-10.801 -5.774,-16.035 l -0.23,-0.606 c -0.676,-1.793 -2.074,-3.133 -4.273,-4.113 l -1.364,-0.598 c -2.527,-1.121 -5.156,-2.273 -7.617,-3.574 -0.894,-0.477 -1.629,-1.613 -1.945,-3.035 -0.348,-1.524 -0.149,-3.078 0.515,-3.965 l 0.27,-0.379 c 0.375,-0.508 0.723,-0.988 1.109,-1.277 5.985,-4.446 5.559,-10.582 4.715,-14.809 -0.238,-1.211 -0.515,-2.422 -0.805,-3.625 -0.289,-1.2537 -0.574,-2.5116 -0.812,-3.7733 -0.754,-3.8594 -1.527,-7.7148 -2.293,-11.5703 -1.992,-10.0117 -4.059,-20.3594 -5.773,-30.582 -1.618,-9.6875 -2.918,-19.6055 -4.168,-29.1914 -0.477,-3.6172 -0.954,-7.2305 -1.438,-10.8399 -0.328,-2.4101 -0.664,-4.9062 -0.617,-7.34372 0.07,-2.74219 0.656,-4.77344 1.867,-6.39844 1.25,-1.691409 2.184,-1.5312525 2.996,-1.359377 3.797,0.699218 6.985,3.804687 7.262,7.066407 1.676,19.22653 5.211,38.44923 8.633,57.03513 1.25,6.8047 2.5,13.6133 3.668,20.4297 1.906,11.1211 5.707,21.4652 8.793,29.2342 1.297,3.285 4.035,5.863 7.894,7.453 7.848,3.235 16.473,4.121 25.41,2.641 1.688,-0.281 2.469,-1.133 2.848,-1.797 0.387,-0.711 0.695,-1.93 -0.059,-3.726 l -0.32,-0.754 c -0.871,-2.09 -1.785,-4.25 -3.086,-6.188 -2.957,-4.394 -4.949,-9.441 -6.277,-15.8905 -0.625,-3.0469 -0.43,-6.0782 0.633,-9.2657 2.429,-7.3984 7.363,-11.8789 15.082,-13.707 5.605,-1.332 11.211,-0.9375 16.566,1.2344 0.934,0.3672 1.797,0.8633 2.672,1.3555 0.574,0.3164 1.141,0.6367 1.715,0.9296 l 1,0.5118 c 1.183,0.6093 2.402,1.2422 3.691,1.7031 3.942,1.3984 7.801,0.7695 10.715,-1.7031 1.867,-1.5703 3.633,-3.2891 5.34,-4.9493 1.844,-1.8007 3.75,-3.6601 5.754,-5.2968 2.551,-2.1016 5.418,-3.0469 8.441,-2.8399 l 0.696,0.0469 c 1.558,0.082 2.402,0.168 3.027,0.9766 0.625,0.8281 1.058,1.9101 -0.031,4.2148 -0.973,1.9961 -2.493,3.9727 -4.266,5.5703 -3.871,3.4844 -5.941,8.0078 -6.52,14.2422 -0.503,5.4688 0.618,10.625 3.336,15.3241 0.735,1.27 1.547,2.496 2.36,3.727 1.082,1.621 2.094,3.152 2.937,4.797 2.918,5.738 3.77,12.086 2.539,18.867" /><path
         id="path48"
         style="fill:#040606;fill-opacity:1;fill-rule:nonzero;stroke:none"
         d="m 150.676,138.594 c -2.274,-2.008 -3.738,-4.953 -5.16,-7.793 -1.844,-3.672 -3.469,-7.274 -5.047,-10.754 -1.172,-2.598 -2.344,-5.188 -3.574,-7.754 -0.774,-1.633 -1.954,-3.191 -3.325,-4.391 -1.476,-1.304 -3.222,-2.64 -4.961,-2.64 -1.476,0.105 -2.695,0.254 -3.918,0.398 -2.976,0.36 -5.753,0.688 -8.64,0.313 C 100.98,103.957 87.5391,100.445 74.9297,95.2266 68.4102,92.5273 61.8633,89.5273 55.543,86.625 52.793,85.3711 50.0547,84.1094 47.3086,82.875 46.125,82.3438 44.957,81.8008 43.7852,81.2539 41.8984,80.3711 40.0156,79.4883 38.0898,78.668 c -4.4257,-1.9024 -8.5429,0.6484 -9.0078,5.2539 -0.3984,3.9453 0.1094,8.1836 1.5274,12.9609 1.6758,5.6682 4.8633,9.8792 9.4648,12.5192 0.7149,0.414 1.4297,0.84 2.1446,1.266 2.1914,1.312 4.4531,2.66 6.875,3.637 13.1132,5.258 27.0859,9.218 41.5078,11.761 2.4804,0.438 5.0234,0.602 7.4726,0.754 1.7266,0.114 3.4608,0.223 5.1798,0.426 1.043,0.125 2.101,0.508 3.223,0.91 0.437,0.157 0.863,0.317 1.3,0.457 1.25,0.407 1.875,1.219 2.082,2.731 0.192,1.351 -0.156,2.426 -1.082,3.375 -2.14,2.172 -4.8,3.582 -8.125,4.301 -4.4645,0.972 -9.2262,1.031 -14.6129,0.183 -13.5039,-2.125 -26.668,-5.176 -39.1289,-9.062 -1.5274,-0.5 -3.3516,0.183 -4.7735,1.632 -1.0898,1.114 -1.7031,2.465 -1.6836,3.704 0.1953,10.691 4.293,20.394 8.4727,29.418 1.1601,2.488 3.3008,4.523 6.0312,5.726 0.5938,0.262 1.1797,0.539 1.7539,0.82 1.7579,0.84 3.5821,1.707 5.5391,2.032 7.9648,1.281 15.8906,1.711 25.3477,1.961 7.789,0.211 15.7223,0.937 23.4023,1.644 l 1.699,0.156 c 1.438,0.129 2.133,1.625 2.36,2.258 0.457,1.266 0.25,2.371 -0.676,3.594 -1.535,2.016 -3.32,3.238 -5.317,3.621 -3.543,0.68 -7.101,1.234 -10.6558,1.789 l -4.2266,0.664 c -2.4297,0.274 -4.9883,0.414 -7.7656,0.414 -6.1719,0 -12.4414,-0.703 -18.5039,-1.379 l -3.6524,-0.41 C 44.1836,185.629 25.6602,177.688 7.63281,163.512 3.71484,160.43 1.11328,156.352 0.101563,151.707 c -0.289063,-1.34 0.03125,-2.437 0.992187,-3.363 3.00781,-2.903 6.73828,-3.418 9.73435,-1.297 1.0313,0.726 2.0235,1.504 3.0235,2.273 1.6484,1.282 3.3554,2.602 5.1914,3.711 1.1601,0.707 2.8047,1.184 4.0859,1.184 0.7539,0 1.3906,-0.16 1.8945,-0.473 1.5586,-0.972 2.3633,-3.914 2.0157,-5.789 -0.9922,-5.332 -2.1719,-10.715 -3.3164,-15.918 -0.4649,-2.113 -0.9297,-4.226 -1.3868,-6.344 -0.8125,-3.82 -2.8593,-6.91 -4.7421,-9.425 -0.5743,-0.774 -1.0938,-1.594 -1.6172,-2.411 -0.3789,-0.585 -0.7539,-1.175 -1.1524,-1.746 -1.1797,-1.722 -1.5351,-3.769 -1.082,-6.257 0.2109,-1.168 0.5273,-2.325 0.8437,-3.489 0.586,-2.125 1.1836,-4.3239 1.1407,-6.5739 -0.1289,-7.2969 -0.7618,-14.3243 -1.586,-22.75 -0.1992,-2.125 -1.6172,-4.1094 -2.4492,-5.1055 C 10.6875,66.7227 9.52734,65.6523 8.40625,64.6211 7.68359,63.9492 6.94922,63.2773 6.26172,62.5664 4.37891,60.6055 4.52734,57.6602 6.62891,55.2266 c 3.92969,-4.5547 9.29689,-6 14.46489,-3.9453 5.5195,2.1992 10.6367,4.7226 15.6757,7.707 11.4688,6.8281 25.1602,14.8047 39.7344,22.207 4.0313,2.0508 7.7109,3.832 11.9063,4.875 2.2226,0.543 4.4062,1.2149 6.5976,1.8789 1.8242,0.5625 3.6524,1.1172 5.4882,1.6016 l 1.02,0.2734 c 6.101,1.6328 12.402,3.3164 18.89,3.9805 0.18,0.0117 0.367,0.0234 0.567,0.0234 3.433,0 8.195,-3.0742 8.543,-6.3437 0.207,-1.8867 0.375,-3.7813 0.543,-5.6758 0.269,-3.082 0.558,-6.2656 1.004,-9.3516 0.664,-4.4922 3.156,-8.4218 7.402,-11.6757 1.238,-0.9532 2.637,-1.7032 4.047,-2.1719 1.32,-0.4492 2.797,-0.6797 4.265,-0.6797 2.508,0.0234 4.368,1 5.426,2.7422 0.379,0.6211 0.469,1.5664 0.238,2.4687 -0.246,0.9844 -0.832,1.7969 -1.668,2.2891 -4.828,2.8516 -7.179,7.3867 -7.179,13.8555 0.008,8.6367 1.844,15.9687 5.605,22.4098 3.024,5.164 5.805,10.61 8.492,15.879 l 2.122,4.156 c 0.792,1.536 1.308,3.004 1.546,4.372 0.946,5.593 -0.086,9.687 -3.254,12.886 -1.476,1.485 -5.503,1.317 -7.429,-0.394" /><path
         id="path50"
         style="fill:#040606;fill-opacity:1;fill-rule:nonzero;stroke:none"
         d="m 597.07,79.6367 c -0.097,2.5352 -0.16,4.9297 -0.218,7.0938 -0.098,4.1875 -0.176,7.4883 -0.465,10.7695 -0.317,3.68 -2.125,6.945 -5.508,9.969 -1.813,1.629 -6.02,2.297 -8.035,1.242 l -1.41,-0.727 c -1.704,-0.882 -3.481,-1.793 -4.989,-2.914 -3.48,-2.59 -6.925,-5.402 -10.25,-8.1286 l -1.554,-1.2695 c -8.157,-6.6367 -16.797,-12.2227 -25.688,-16.6055 -2.262,-1.1211 -4.992,-1.8867 -7.668,-2.1601 -3.129,-0.2969 -6.43,0.957 -7.957,3.1875 -3.363,4.8671 -4.824,10.1289 -4.226,15.2226 1.386,12.0816 4.414,22.4966 9.253,31.8356 1.075,2.059 2.204,4.082 3.336,6.114 0.93,1.656 1.856,3.308 2.747,4.984 1.191,2.613 2.441,6.289 3.902,10.551 0.89,2.605 1.844,5.387 2.887,8.23 0.336,2.25 1.011,4.703 1.656,7.074 0.465,1.676 0.922,3.348 1.289,5.04 1.547,7.128 1.586,14.566 0.109,22.101 -1.07,5.484 -3.156,7.977 -7.672,9.18 -1.418,0.359 -3.621,-0.207 -4.582,-0.828 -2.172,-2.246 -3.699,-5.024 -4.195,-7.864 -2.195,-12.367 -6.398,-24.277 -10.469,-35.8 l -0.246,-0.707 c -4.07,-11.508 -8.594,-24.938 -10.765,-38.719 -1.129,-7.25 -4.594,-13.528 -10.02,-18.1447 -1.875,-1.6016 -3.75,-3.2266 -5.617,-4.8477 -4.434,-3.8398 -9.027,-7.8125 -13.699,-11.5351 -2.364,-1.8828 -5.18,-3.1719 -7.899,-4.4141 l -1.191,-0.5508 c -0.883,-0.4101 -1.875,-0.6172 -2.938,-0.6172 -3.957,0 -7.996,2.8008 -8.988,6.25 -0.078,0.2735 -0.187,0.5352 -0.297,0.793 -0.226,0.543 -0.476,1.1602 -0.535,1.8633 -0.953,12.9922 2.301,25.8593 9.93,39.3403 1.855,3.281 4.515,5.714 7.91,7.23 0.605,0.273 1.238,0.512 1.863,0.75 1.629,0.609 3.156,1.188 4.266,2.422 1.074,1.195 1.437,2.277 1.179,3.496 -1.207,5.766 -4.57,9.832 -9.976,12.094 -2.711,1.121 -5.629,0.715 -8.434,-1.153 -4.027,-2.668 -7.246,-6.289 -9.547,-10.761 -7.082,-13.746 -11.238,-26.942 -12.726,-40.3519 -0.34,-3.0508 -0.418,-6.2852 -0.258,-9.8945 0.219,-4.6446 1.617,-9.1524 4.273,-13.7852 4.317,-7.4726 12.372,-12.1094 21.043,-12.1094 3.582,0 7.055,0.7735 10.321,2.293 3.699,1.7188 8.461,4.1602 12.5,7.8125 1.746,1.5703 3.461,3.1719 5.179,4.7773 1.36,1.2696 2.719,2.5391 4.098,3.7969 2.211,2.0313 6.813,1.8281 8.551,-0.375 1.043,-1.3359 2.062,-2.6797 3.074,-4.0429 0.527,-0.7188 1.031,-1.4454 1.539,-2.1719 0.922,-1.3242 1.844,-2.6524 2.875,-3.8946 5.856,-7.0976 13.625,-9.6523 23.863,-7.7539 5.883,1.0899 11.2,3.2579 15.793,6.4375 4,2.7579 9.278,6.3789 14.735,9.8868 1.386,0.9023 2.886,1.6289 4.336,2.3359 0.8,0.3945 1.617,0.7852 2.41,1.2109 0.863,0.461 1.637,0.6914 2.371,0.6914 1.102,0 2.598,-0.5156 3.461,-2.9687 l 2.125,-6.125 c 2.004,-5.8008 4.066,-11.793 6.32,-17.5899 1.071,-2.7578 3.305,-4.7226 6.449,-5.6835 1.477,-0.4375 3.899,0.5585 5.118,2.0039 0.468,0.5429 0.683,1.0703 0.617,1.4726 -0.418,2.4063 -0.903,4.8008 -1.371,7.1485 -1.328,6.6093 -2.59,12.8593 -1.985,17.7929" /><path
         id="path52"
         style="fill:#040606;fill-opacity:1;fill-rule:nonzero;stroke:none"
         d="m 900.074,128.324 c -5.437,5.973 -11.726,8.309 -19.219,7.145 -4.117,-0.637 -7.972,-1.942 -11.488,-3.887 l -7.5,-4.184 c -6.219,-3.484 -12.648,-7.082 -19.058,-10.476 -2.996,-1.586 -5.176,-2.293 -7.075,-2.293 -2.964,0 -5.265,1.711 -7.437,5.535 -4.766,8.363 -9.625,14.52 -15.289,19.383 -0.953,0.808 -1.68,1.789 -2.371,2.734 -0.321,0.438 -0.649,0.879 -0.992,1.297 -1.25,1.504 -1.856,3.508 -1.637,5.36 0.156,1.328 0.754,2.437 1.683,3.128 3.473,2.579 6.965,5.133 10.457,7.68 l 1.727,1.254 c 5.051,3.691 9.078,7.641 12.293,12.07 1.797,2.481 2.602,5.485 2.332,8.692 -0.406,4.914 -2.539,9.027 -6.32,12.215 -10.2,8.621 -21.211,13.144 -33.664,13.828 -7.469,0.414 -14.852,-0.617 -21.907,-3.051 -4.175,-1.449 -7.539,-3.582 -9.988,-6.352 -1.012,-1.125 -1.824,-2.492 -2.293,-3.843 -1.269,-3.602 -1.359,-7.422 -0.285,-11.684 0.504,-1.973 2.34,-3.906 3.711,-3.906 l 0.691,0.008 1.328,-0.008 c 0.497,0 1.668,0 2.145,0.351 1.945,1.477 3.801,3.203 5.586,4.875 1.23,1.153 2.469,2.301 3.75,3.399 3.305,2.808 6.152,4.398 9.258,5.168 10.785,2.64 19.691,1.207 27.558,-4.371 1.508,-1.067 2.481,-3.063 2.602,-5.344 0.109,-2.219 -0.625,-4.254 -1.984,-5.434 -2.989,-2.625 -6.391,-5.066 -10.399,-7.472 -1.535,-0.922 -3.113,-1.782 -4.703,-2.645 -3.641,-1.98 -7.094,-3.855 -10.109,-6.535 -2.075,-1.836 -4.008,-8.207 -3.047,-10.027 4.328,-8.121 8.168,-14.711 14.746,-19.485 2.699,-1.953 5.515,-4.136 7.816,-6.804 3.461,-3.997 7.313,-9.54 6.27,-17.012 -0.348,-2.453 -1.27,-4.164 -2.836,-5.238 -2.332,-1.606 -4.485,-2.9028 -6.559,-3.9536 -8.344,-4.1953 -16.449,-8.4023 -23.949,-13.6953 -2.559,-1.8008 -5.031,-3.9727 -7.344,-6.4609 -3.301,-3.5469 -4.066,-7.836 -2.269,-12.7579 0.543,-1.496 1.34,-2.4218 2.508,-2.9023 6.976,-2.875 13.832,-3.3125 21.371,-1.332 12.621,3.3125 21.66,10.6523 27.621,22.4414 1.34,2.6445 2.59,5.3398 3.84,8.0351 l 1.558,3.3477 c 1.684,3.6133 4.555,6.2068 6.863,8.0628 2.403,1.945 4.426,3.363 6.36,4.465 11.39,6.472 23.344,11.046 35.539,13.589 0.426,0.09 0.89,0.133 1.379,0.133 1.668,0 3.363,-0.519 4.433,-1.363 1.598,-1.25 2.391,-3.613 2.59,-5.266 0.379,-3.109 0.703,-6.773 0.328,-10.328 -0.496,-4.7733 -1.34,-9.7108 -2.558,-15.0858 -1.41,-6.2226 -1.875,-12.6875 -1.578,-21.625 l 0.16,-1.4687 c 0.187,-1.7227 0.453,-4.1758 0.754,-6.6211 0.047,-0.4453 0.168,-0.8789 0.277,-1.3125 0.09,-0.3477 0.176,-0.6992 0.246,-1.0586 0.387,-2.0352 3.93,-5.0391 6.004,-5.1055 l 0.285,-0.0039 c 2.949,0 5.418,1.4844 6.59,3.9649 0.695,1.4687 1.102,2.7187 0.824,4.0507 -1.351,6.461 -1.172,13.168 0.543,20.5 1.242,5.2383 2.223,10.6602 3.188,15.9024 0.535,2.9453 1.07,5.8941 1.644,8.8281 1.281,6.434 0.063,13.379 -3.719,21.238 -0.296,0.614 -0.824,1.203 -1.281,1.711" /><path
         id="path54"
         style="fill:#040606;fill-opacity:1;fill-rule:nonzero;stroke:none"
         d="m 1413.54,54.9766 c 0.08,0.3828 0.21,0.7578 0.33,1.1367 0.14,0.3984 0.28,0.7734 0.28,1.0508 0.1,7.3086 1.13,14.5898 2.14,21.6328 0.74,5.2578 1.51,10.6914 1.88,16.0586 0.65,9.3905 3.76,18.2105 6.78,26.7345 l 0.98,2.781 c 1.34,3.813 4.01,6.606 7.53,7.871 11.81,4.25 24.7,7.473 39.39,9.832 5.43,0.875 10.96,1.528 15.51,0.531 1.85,-0.402 3.96,-2.597 4.2,-4.351 0.54,-3.945 -0.1,-8.199 -1.95,-12.996 -5.28,-13.809 -5.5,-28.2385 -5.26,-41.8361 0.04,-2.3321 0.54,-4.7422 1.1,-7.2071 0.87,-3.9218 3.13,-6.9218 6.72,-8.9257 2.11,-1.1719 4.49,-1.9727 6.76,-2.6993 3.06,-1.0078 7.3,1.1055 8.91,4.3516 1.92,3.8555 0.99,6.7149 -2.81,8.75 -3.86,2.0586 -5.83,4.9609 -6.04,8.8594 -0.24,4.6328 -0.31,10.0859 1.05,15.4492 l 0.39,1.527 c 1.52,5.957 3.08,12.11 5.19,17.996 2.24,6.282 3.43,12.934 4.58,19.36 l 0.46,2.551 c 0.46,2.589 -0.19,5.504 -2,8.902 -1.42,2.676 -3.8,4.273 -7.05,4.738 -1.52,0.215 -3.15,0.414 -4.67,0.231 l -4.66,-0.571 c -8.29,-1.004 -16.87,-2.043 -25.17,-3.961 -5.43,-1.253 -11.02,-2.144 -16.43,-3.015 -2.01,-0.317 -4.01,-0.641 -6.02,-0.977 -2.33,-0.39 -5.14,0.782 -6.81,2.793 -1.11,1.328 -1.56,2.824 -1.3,4.207 0.49,2.645 1.03,5.274 1.57,7.907 0.47,2.312 0.95,4.621 1.38,6.929 0.5,2.606 -0.21,5.313 -1.98,7.629 -2.02,2.621 -5.04,4.254 -8.3,4.492 h -0.03 c -0.73,0 -1.24,-0.183 -1.35,-0.308 -1.16,-1.121 -2.33,-2.262 -2.72,-3.414 -3.43,-9.782 -6.85,-19.946 -10.48,-31.078 -1.79,-5.461 -5.96,-7.45 -9.82,-8.676 -6.19,-1.973 -12.9,-3.848 -20.04,-4.207 l -1.45,-0.063 c -3.71,-0.164 -7.21,-0.316 -10.49,-1.711 -1.13,-0.48 -1.88,-1.406 -2.39,-2.902 -0.83,-2.539 0.33,-5.91 2.54,-7.344 2.55,-1.668 5.35,-2.515 8.31,-2.515 l 0.48,0.011 c 3.69,0.114 7.44,0.465 11.07,0.813 l 3.95,0.363 c 0.22,0.02 0.45,0.031 0.67,0.031 2.16,0 4.3,-0.933 5.71,-2.492 1.19,-1.308 1.76,-2.922 1.6,-4.539 -0.2,-2.082 -0.4,-4.172 -0.59,-6.254 -0.49,-5.367 -1.01,-10.9257 -1.75,-16.3592 -0.84,-5.9415 -1.7,-12.918 -1.48,-20.6836 l 0.05,-1.3047 c 0.19,-4.6563 0.4,-9.9336 2.4,-14.8672 0.59,-1.4727 2.25,-3.0586 4.61,-3.2774 l 0.06,-0.0039 c 1.45,0 4.29,2.2071 4.46,3.0196" /><path
         id="path56"
         style="fill:#040606;fill-opacity:1;fill-rule:nonzero;stroke:none"
         d="m 1637.27,77.4766 c -3.03,0.2382 -6.07,0.4453 -9.12,0.6523 -2.81,0.1875 -5.63,0.375 -8.45,0.5938 -4.1,0.3125 -8.51,6.5195 -8.41,10.4921 0.12,4.6133 1.25,8.9922 2.34,12.6682 1.37,4.609 2.01,9.508 1.9,14.555 -0.07,3.574 -2.92,7.542 -6,8.324 -3.49,0.886 -6.12,0.316 -8.04,-1.766 -4.91,-5.285 -10.14,-10.937 -15.27,-16.742 -4.42,-4.977 -9.4,-9.4298 -15.21,-13.6212 -0.95,-0.6836 -1.98,-1.2695 -3,-1.8555 -0.47,-0.2656 -0.94,-0.5312 -1.4,-0.8085 -1.3,-0.7891 -2.91,-1.211 -4.64,-1.211 -3.45,0 -6.68,1.6172 -8.23,4.1133 -1.27,2.0469 -2.85,4.5977 -3.24,7.2809 -1.28,9.09 -0.79,17.676 1.43,25.524 0.77,2.746 1.58,5.484 2.39,8.222 1.54,5.235 3.12,10.641 4.48,16.004 0.69,2.715 0.76,5.715 0.82,8.621 l 0.02,1.086 c 0.06,2.832 -1.33,5.09 -4.37,7.11 l -0.4,0.269 c -0.5,0.352 -0.98,0.684 -1.41,0.805 -0.39,0.102 -0.81,0.242 -1.23,0.379 -1.15,0.375 -2.5,0.59 -2.69,0.508 -1.35,-0.657 -2.55,-1.778 -3.81,-2.961 -0.46,-0.426 -1.05,-0.727 -1.37,-1.258 -1.58,-2.645 -1.39,-6.012 -2.11,-9.012 -1.73,-7.347 -3.52,-14.941 -4.93,-22.461 -1.28,-6.832 -2.74,-15.804 -2.65,-24.621 -0.49,-7.551 1.69,-14.324 3.64,-19.3982 1.09,-2.8008 3.05,-5.3243 5.7,-7.3047 2.27,-1.6993 4.96,-3.2383 8.47,-4.8477 7.67,-3.5039 15.32,-2.8555 22.73,1.957 2.49,1.6055 4.89,3.3321 7.31,5.0547 l 2.98,2.1211 c 0.91,0.6406 2.17,0.9922 3.57,0.9922 1.67,0 3.85,-0.5391 4.94,-2.0469 1.99,-2.7226 3.92,-5.4882 5.83,-8.2539 4.48,-6.4883 10.68,-9.6445 18.96,-9.6445 0.56,0 1.13,0.0156 1.7,0.0469 2.77,0.1367 6.36,0.414 9.69,1.3437 3.05,0.8516 5.54,2.6758 7.2,5.2774 0.81,1.2734 1.01,2.4687 0.6,3.6445 -0.05,-0.0195 -0.47,0.1484 -0.72,0.168" /><path
         id="path58"
         style="fill:#040606;fill-opacity:1;fill-rule:nonzero;stroke:none"
         d="m 259.59,125.992 c -1.317,0.383 -2.43,0.219 -3.817,-0.566 -3.406,-1.903 -5.695,-4.899 -8.117,-8.067 l -0.336,-0.453 c -10.218,-13.394 -22.859,-25.3552 -38.656,-36.5544 -1.039,-0.7461 -2.25,-1.1485 -3.41,-1.5352 -0.477,-0.1562 -0.965,-0.3203 -1.43,-0.5039 -2.383,-0.9766 -7.738,1.2852 -8.383,6.1602 -0.148,7.5195 2.133,13.2695 4.692,18.9963 2.164,4.84 4.543,9.672 6.836,14.34 1.758,3.554 3.504,7.113 5.179,10.699 1.489,3.187 2.727,6.597 3.93,9.89 l 0.613,1.684 c 0.407,1.121 0.2,2.305 -0.664,3.731 -1.16,1.902 -2.468,3.863 -4.543,5.117 -1.699,1.039 -3.832,0.918 -5.597,-0.321 -1.457,-1.043 -2.489,-2.129 -2.965,-3.144 -1.856,-3.902 -3.641,-7.828 -5.43,-11.762 -2.34,-5.172 -4.762,-10.519 -7.32,-15.695 -4.434,-8.988 -6.508,-18.883 -8.5,-28.4455 -0.379,-1.8008 -0.449,-3.5391 -0.52,-5.0664 -0.019,-0.668 -0.047,-1.3047 -0.086,-1.8789 l 0.168,-1.8867 c 0.098,-1.2696 0.176,-2.3594 0.348,-3.4336 l 0.09,-0.5586 c 0.207,-1.3945 0.426,-2.836 0.961,-4.0156 1.012,-2.2774 2.012,-4.5313 3.492,-6.1641 2.879,-3.1797 7.617,-5.0781 12.699,-5.0781 3.352,0 6.489,0.8711 8.84,2.4492 2.441,1.6484 4.387,3.0273 6.109,4.3359 4.329,3.3008 8.653,6.6133 12.981,9.9258 l 11.059,8.4727 c 0.984,0.7539 2.195,1.1718 3.394,1.1718 2.145,0 3.969,-1.2929 4.555,-3.2148 0.633,-2.082 1.258,-4.168 1.875,-6.25 1.062,-3.5586 2.121,-7.1133 3.242,-10.6445 0.508,-1.5703 1.223,-2.961 2.074,-4.0235 0.832,-1.0351 2.024,-2.0273 3.445,-2.8633 1.934,-1.1406 5.415,0.9297 5.563,3.0274 0.238,3.1445 -0.148,6.3945 -0.516,9.5273 -0.504,4.3125 -1.019,8.7657 -0.058,13.2657 0.953,4.4296 2.015,8.8398 3.066,13.2461 0.715,2.9607 1.43,5.9177 2.102,8.8827 0.367,1.637 0.586,3.238 0.625,4.746 0.043,1.348 0.043,3.094 -0.336,4.668 -1.024,4.098 -3.395,6.652 -7.254,7.789" /><path
         id="path60"
         style="fill:#040606;fill-opacity:1;fill-rule:nonzero;stroke:none"
         d="m 993.383,187.855 c 0.387,1.204 0.316,2.899 -0.168,3.946 -0.813,1.726 -2.094,3.355 -3.344,4.929 l -0.754,0.969 c -0.258,0.332 -0.812,0.68 -1.547,0.973 -0.406,0.156 -0.824,0.348 -1.242,0.535 -0.922,0.422 -1.883,0.856 -2.598,0.856 -2.39,-0.372 -4.414,-1.75 -5.355,-3.536 -8.703,-16.343 -16.371,-31.004 -23.437,-44.82 -3.114,-6.102 -6.059,-12.434 -8.918,-18.562 l -1.965,-4.215 c -4.801,-10.235 -7.293,-21.301 -7.61,-33.8402 l -0.007,-1.5781 c -0.012,-1.1328 -0.032,-2.2617 0.019,-3.3945 0.652,-14.7617 5.852,-26.1641 15.902,-34.8399 0.289,-0.246 0.625,-0.4492 0.961,-0.6523 0.36,-0.2187 0.715,-0.4375 1.043,-0.6914 1.262,-0.957 3.879,-0.6523 5.141,0.6367 0.914,0.9453 1.031,1.9531 0.355,2.9961 -6.882,10.5117 -10.168,22.0352 -9.769,34.2383 0.156,4.9219 0.883,9.9023 2.191,15.2223 2.61,10.598 6.141,19.957 10.785,28.625 7.727,14.418 16.477,30.766 27.102,45.836 1.398,1.985 2.512,4.188 3.215,6.367" /><path
         id="path62"
         style="fill:#040606;fill-opacity:1;fill-rule:nonzero;stroke:none"
         d="m 1378.83,169.309 0.69,-0.016 c 2.38,0 4.22,0.473 5.8,1.473 1.88,1.199 3.71,2.488 5.55,3.769 3.66,2.578 7.45,5.242 11.58,7.141 19.68,9.078 41.12,17.472 64.61,17.472 l 1.87,-0.011 c 3.07,0 6.18,0.207 9.77,0.441 1.93,0.129 3.98,0.262 6.21,0.383 l 4.31,-0.234 c 4.31,-0.243 9.3,-0.528 14.3,-0.731 1.05,-0.039 2.14,0.137 3.12,0.285 0.53,0.082 1.07,0.164 1.6,0.223 0.73,0.086 1.24,0.293 1.44,0.594 0.23,0.351 0.14,0.945 0.02,1.379 l -0.21,0.824 c -0.31,1.203 -0.63,2.441 -1.25,3.07 -3.19,3.242 -6.47,5.121 -10.06,5.758 -5.79,1.019 -12.15,1.516 -19.43,1.516 -6.43,0 -13.02,-0.375 -19.38,-0.747 l -1.14,-0.066 c -20.55,-1.184 -41.13,-6.266 -62.9,-15.551 -3.83,-1.644 -7.48,-3.625 -10.83,-5.89 -2.72,-1.84 -5.16,-4.102 -7.06,-6.528 -3.13,-4.043 -3.65,-8.347 -1.52,-12.797 0.58,-1.23 1.37,-1.707 2.91,-1.757" /><path
         id="path64"
         style="fill:#040606;fill-opacity:1;fill-rule:nonzero;stroke:none"
         d="m 778.977,143.078 c 1.191,3.594 -1.063,6.363 -2.512,7.688 -1.207,1.117 -2.481,2.035 -3.777,2.726 -0.864,0.469 -1.915,0.719 -3.016,0.719 -2.66,0 -5.152,-1.406 -5.797,-3.27 -1.031,-2.976 -2.07,-5.949 -3.113,-8.925 -2.5,-7.149 -5.102,-14.539 -7.422,-21.875 -3.453,-10.926 -6.578,-23.3012 -5.992,-39.7191 0.039,-0.3594 0.097,-1 0.168,-1.7774 0.211,-2.4531 0.527,-6.1601 1.14,-9.8593 0.664,-3.9727 2.305,-7.5743 4.864,-10.7032 1.437,-1.75 3.183,-2.2539 5.199,-1.5078 1.953,0.7188 3.769,2.9258 3.758,4.1172 -0.008,0.4961 0.101,0.957 0.191,1.3633 0.059,0.25 0.148,0.6641 0.117,0.7891 -5.269,18.1718 -0.773,35.4335 4.317,49.9262 0.625,1.789 1.437,3.515 2.222,5.187 0.625,1.34 1.25,2.68 1.785,4.051 l 1.211,3.113 c 2.289,5.852 4.66,11.91 6.657,17.957" /><path
         id="path66"
         style="fill:#040606;fill-opacity:1;fill-rule:nonzero;stroke:none"
         d="m 1300.87,82.6523 c -0.69,1.0625 -4.21,2.3594 -7.34,2.3594 -1.41,0 -2.06,-0.2851 -2.23,-0.4531 -0.98,-1.0352 -1.74,-2.4766 -1.92,-3.6758 -1.16,-7.5273 0.18,-14.5859 4,-20.9844 0.63,-1.039 1.71,-1.957 2.76,-2.8437 l 0.46,-0.3984 c 0.38,-0.3243 1.42,-0.6719 2.83,-0.6719 1.3,0 2.28,0.2969 2.67,0.5937 2.33,1.7578 3.3,3.0782 3.33,4.5469 0.39,6.4766 -0.37,12.1289 -2.34,17.3438 -0.58,1.5742 -1.49,3.0625 -2.22,4.1835" /><path
         id="path68"
         style="fill:#040606;fill-opacity:1;fill-rule:nonzero;stroke:none"
         d="m 1537.24,215.574 c -0.13,0.426 -0.24,0.871 -0.33,1.321 -0.23,0.941 -0.46,1.918 -0.91,2.406 -3.45,3.672 -7.41,7.07 -13.06,7.07 -0.24,0 -0.5,-0.004 -0.74,-0.019 -1.87,-0.094 -2.46,-0.672 -2.82,-1.641 -3.48,-9.094 2.18,-15.117 5.86,-17.898 0.16,-0.125 0.58,-0.278 1.66,-0.309 l 0.22,-0.008 c 4.91,0 9.31,3.969 10.12,9.078" /><path
         id="path70"
         style="fill:#040606;fill-opacity:1;fill-rule:nonzero;stroke:none"
         d="m 184.699,205.148 c -3.386,4.043 -7.351,7.79 -13.386,7.821 -1.672,0 -2.422,-0.391 -2.911,-1.492 -3.964,-8.872 1.336,-15.204 4.864,-18.188 0.125,-0.109 0.515,-0.312 1.621,-0.398 0.254,-0.02 0.496,-0.032 0.742,-0.032 4.754,0 10.191,3.528 10.105,8.508 -0.007,0.442 -0.605,3.27 -1.035,3.781" /><path
         id="path72"
         style="fill:#040606;fill-opacity:1;fill-rule:nonzero;stroke:none"
         d="m 917.426,209.609 c -2.735,2.344 -5.977,4.95 -9.875,6.235 -0.703,0.234 -1.387,0.351 -2.031,0.351 -1.27,0 -2.422,-0.445 -3.543,-1.355 -0.93,-0.758 -1.036,-1.168 -1.047,-1.211 -0.723,-3.711 0.148,-7.371 2.461,-10.293 1.984,-2.516 4.757,-4.098 7.453,-4.25 0.476,0.066 0.965,0.121 1.453,0.172 1.074,0.109 2.09,0.215 2.961,0.543 2.019,0.765 3.465,2.527 3.847,4.719 0.352,1.976 -0.273,3.882 -1.679,5.089" /><path
         id="path74"
         style="fill:#040606;fill-opacity:1;fill-rule:nonzero;stroke:none"
         d="m 654.715,80.5078 c -0.262,0 -0.527,-0.0195 -0.785,-0.0664 -2.192,-0.3945 -5.032,-1.6523 -6.09,-5.4141 -0.606,-2.1875 -0.16,-4.1679 1.308,-5.7226 2.508,-2.6524 4.903,-4.7695 7.293,-6.4805 0.594,-0.4219 1.684,-0.5195 2.739,-0.6211 0.515,-0.0429 1.031,-0.0937 1.515,-0.1718 0.993,-0.1641 2.016,-0.2696 2.61,1.5429 0.129,0.3906 0.277,0.7891 0.425,1.1914 0.407,1.0547 0.817,2.1446 0.747,3.0078 -0.368,3.9571 -2.024,7.4493 -4.911,10.375 -1.488,1.5039 -3.253,2.3594 -4.851,2.3594" /><path
         id="path76"
         style="fill:#040606;fill-opacity:1;fill-rule:nonzero;stroke:none"
         d="m 2011.14,73.5508 c -1.76,1.1601 -3.7,1.793 -5.47,1.793 -0.77,0 -1.5,-0.1172 -2.19,-0.3555 -2.69,-0.9297 -6.01,-2.9844 -6.6,-7.5391 -0.34,-2.625 0.61,-4.789 2.75,-6.2656 3.6,-2.4805 6.95,-4.375 10.19,-5.8008 1.27,-0.5664 3.47,-0.6015 5.18,-0.0937 1.82,0.5351 3.08,1.539 3.74,2.9804 0.93,2.0039 0.59,4.6289 -0.17,6.3399 -2.52,5.039 -3.37,6.2695 -7.43,8.9414" /></g></g></svg>